<?xml version="1.0" encoding="UTF-8"?>
<svg xmlns="http://www.w3.org/2000/svg" version="1.1" viewBox="0 0 1126.22 128.21">
  <defs>
    <style>
      .cls-1 {
        fill: #dfdfdf;
      }
    </style>
  </defs>
  <!-- Generator: Adobe Illustrator 28.6.0, SVG Export Plug-In . SVG Version: 1.2.0 Build 709)  -->
  <g>
    <g id="Layer_1">
      <g>
        <g>
          <rect class="cls-1" y="65.6" width="107.8" height="55.57"/>
          <rect class="cls-1" x="120.87" y="65.6" width="107.8" height="55.57"/>
          <rect class="cls-1" x="241.74" y="0" width="107.8" height="55.57"/>
        </g>
        <g>
          <path class="cls-1" d="M497.25,74.79c-5.11-4.81-12.13-6.32-21.55-6.32h-27.26c-16.84,0-26.26,9.02-26.26,24.36v.1c0,15.54,9.42,24.46,26.26,24.46h27.26c9.62,0,16.54-1.6,21.55-6.32l6.92,8.62c-6.72,6.32-15.54,8.52-28.47,8.52h-27.26c-24.26,0-38.09-13.03-38.09-35.28v-.1c0-22.05,13.83-35.18,38.09-35.18h27.26c12.63,0,21.55,2.1,28.47,8.52l-6.92,8.62Z"/>
          <path class="cls-1" d="M606.2,87.72v-29.47h12.13v69.36h-12.13v-29.17h-68.06v29.17h-12.13V58.25h12.13v29.47h68.06Z"/>
          <path class="cls-1" d="M734.1,127.61h-13.33l-15.64-22.55h-47.71v22.55h-11.83V58.25h58.14c20.05,0,28.67,9.82,28.67,23.56v.1c0,10.22-4.91,18.14-15.84,21.45l17.54,24.26ZM657.42,68.77v26.06h46.31c11.43,0,16.84-4.61,16.84-12.93v-.1c0-8.32-5.41-13.03-16.84-13.03h-46.31Z"/>
          <path class="cls-1" d="M960.43,58.25h11.93v69.36h-11.53l-67.76-53.42v53.42h-11.93V58.25h11.53l67.76,53.42v-53.42Z"/>
          <path class="cls-1" d="M999.62,127.61V58.25h12.13v69.36h-12.13Z"/>
          <path class="cls-1" d="M1089.03,92.93l37.19,34.68h-15.94l-30.47-28.47-30.57,28.47h-15.94l37.19-34.68-36.89-34.68h15.94l30.27,28.37,30.17-28.37h15.94l-36.89,34.68Z"/>
          <g>
            <path class="cls-1" d="M791.21,116.72c-15.25,0-24.16-6.78-26.2-18.65h-12.1c2.22,18.54,15.95,29.36,38.3,29.36h9v-10.71h-9Z"/>
            <path class="cls-1" d="M846.87,98.07c-2.03,11.87-10.96,18.65-26.29,18.65h-9v10.71h9c22.44,0,36.08-10.82,38.28-29.36h-11.99Z"/>
            <path class="cls-1" d="M791.21,57.64c-22.39,0-36.1,10.83-38.32,29.34h12.12c2.02-11.84,10.93-18.63,26.2-18.63h9v-10.71h-9Z"/>
            <path class="cls-1" d="M820.58,57.64h-9v10.71h9c15.35,0,24.27,6.79,26.29,18.63h12.01c-2.2-18.51-15.84-29.34-38.3-29.34Z"/>
          </g>
        </g>
      </g>
    </g>
  </g>
</svg>