<?xml version="1.0" encoding="UTF-8"?>
<svg xmlns="http://www.w3.org/2000/svg" version="1.1" viewBox="0 0 735.24 72.47">
  <defs>
    <style>
      .cls-1 {
        fill: #dfdfdf;
      }
    </style>
  </defs>
  <!-- Generator: Adobe Illustrator 28.6.0, SVG Export Plug-In . SVG Version: 1.2.0 Build 709)  -->
  <g>
    <g id="Layer_1">
      <g>
        <path class="cls-1" d="M89.25,17.6c-5.25-4.94-12.46-6.49-22.13-6.49h-28c-17.29,0-26.97,9.27-26.97,25.02v.1c0,15.96,9.68,25.12,26.97,25.12h28c9.88,0,16.99-1.65,22.13-6.49l7.1,8.85c-6.9,6.49-15.96,8.75-29.24,8.75h-28C14.21,72.47,0,59.09,0,36.24v-.1C0,13.49,14.21,0,39.12,0h28c12.97,0,22.13,2.16,29.24,8.75l-7.1,8.85Z"/>
        <path class="cls-1" d="M201.16,30.88V.62h12.46v71.24h-12.46v-29.96h-69.9v29.96h-12.46V.62h12.46v30.27h69.9Z"/>
        <path class="cls-1" d="M332.52,71.86h-13.69l-16.06-23.16h-49v23.16h-12.15V.62h59.71c20.59,0,29.44,10.09,29.44,24.19v.1c0,10.5-5.04,18.63-16.27,22.03l18.02,24.91ZM253.76,11.43v26.77h47.56c11.74,0,17.29-4.74,17.29-13.28v-.1c0-8.54-5.56-13.38-17.29-13.38h-47.56Z"/>
        <path class="cls-1" d="M564.97.62h12.25v71.24h-11.84l-69.59-54.87v54.87h-12.25V.62h11.84l69.59,54.87V.62Z"/>
        <path class="cls-1" d="M605.22,71.86V.62h12.46v71.24h-12.46Z"/>
        <path class="cls-1" d="M697.05,36.24l38.19,35.62h-16.37l-31.3-29.24-31.4,29.24h-16.37l38.19-35.62L640.12.62h16.37l31.09,29.13,30.99-29.13h16.37l-37.89,35.62Z"/>
        <g>
          <path class="cls-1" d="M391.17,60.67c-15.67,0-24.82-6.96-26.91-19.15h-12.43c2.28,19.04,16.38,30.15,39.34,30.15h9.25v-11h-9.25Z"/>
          <path class="cls-1" d="M448.34,41.52c-2.09,12.19-11.26,19.15-27,19.15h-9.25v11h9.25c23.05,0,37.06-11.11,39.32-30.15h-12.31Z"/>
          <path class="cls-1" d="M391.17,0c-22.99,0-37.08,11.13-39.35,30.13h12.45c2.07-12.16,11.22-19.13,26.91-19.13h9.25V0h-9.25Z"/>
          <path class="cls-1" d="M421.33,0h-9.25v11h9.25c15.76,0,24.93,6.98,27,19.13h12.33c-2.26-19.01-16.27-30.13-39.34-30.13Z"/>
        </g>
      </g>
    </g>
  </g>
</svg>